<?xml version="1.0" encoding="UTF-8"?>
<svg version="1.1" xmlns="http://www.w3.org/2000/svg" width="1440" height="1377">
<path d="M0 0 C475.2 0 950.4 0 1440 0 C1440 454.41 1440 908.82 1440 1377 C964.8 1377 489.6 1377 0 1377 C0 922.59 0 468.18 0 0 Z " fill="#000000" transform="translate(0,0)"/>
<path d="M0 0 C475.2 0 950.4 0 1440 0 C1440 454.41 1440 908.82 1440 1377 C964.8 1377 489.6 1377 0 1377 C0 922.59 0 468.18 0 0 Z M369 36 C369 145.89 369 255.78 369 369 C254.16 369 139.32 369 21 369 C21 688.44 21 1007.88 21 1337 C481.35 1337 941.7 1337 1416 1337 C1416 1029.44 1416 721.88 1416 405 C1320.63 405 1225.26 405 1127 405 C1127 393.12 1127 381.24 1127 369 C1120.07 369 1113.14 369 1106 369 C1106 259.11 1106 149.22 1106 36 C862.79 36 619.58 36 369 36 Z " fill="#FFFFFF" transform="translate(0,0)"/>
<path d="M0 0 C4.93942633 3.8016933 9.17928201 8.30837591 13.484375 12.80078125 C15.560917 14.95594782 17.6714653 16.94261919 19.9921875 18.83203125 C22.96407447 21.2919545 25.25352094 23.90920323 27.6796875 26.8828125 C29.43598918 28.76969423 31.17451428 30.36112475 33.1328125 32.0234375 C40.36834804 38.26556618 46.9387105 45.24506499 53.65429688 52.03417969 C62.65671764 61.20146116 62.65671764 61.20146116 72.23046875 69.75976562 C74.49079455 71.77242348 76.32475386 74.08743226 78.24731445 76.41723633 C79.83269634 78.19842536 81.49870514 79.68221632 83.32421875 81.21484375 C88.51370899 85.69673019 93.28333107 90.57170357 98.09375 95.453125 C99.8583379 97.24319432 101.62516304 99.03106181 103.39453125 100.81640625 C104.16579346 101.59927002 104.93705566 102.38213379 105.73168945 103.1887207 C107.82391616 105.29338788 107.82391616 105.29338788 110.78125 107.140625 C110.78125 107.800625 110.78125 108.460625 110.78125 109.140625 C111.338125 109.3675 111.895 109.594375 112.46875 109.828125 C115.44284588 111.51612536 117.50133865 113.60739017 119.78125 116.140625 C119.78125 116.800625 119.78125 117.460625 119.78125 118.140625 C120.32257568 118.35525391 120.86390137 118.56988281 121.42163086 118.79101562 C124.61816658 120.61930838 126.98669211 123.11953671 129.53515625 125.734375 C130.34834572 126.55536682 130.34834572 126.55536682 131.17796326 127.39294434 C132.90472657 129.13747439 134.62464145 130.88855384 136.34375 132.640625 C138.06728273 134.39181313 139.79226683 136.14150699 141.52024841 137.88830566 C142.59373437 138.97400746 143.66453577 140.06237179 144.73231506 141.15368652 C146.99218447 143.44383819 149.09202912 145.34781108 151.78125 147.140625 C151.78125 147.800625 151.78125 148.460625 151.78125 149.140625 C152.6165625 149.4809375 152.6165625 149.4809375 153.46875 149.828125 C156.44284588 151.51612536 158.50133865 153.60739017 160.78125 156.140625 C160.78125 156.800625 160.78125 157.460625 160.78125 158.140625 C161.3577832 158.39046143 161.93431641 158.64029785 162.52832031 158.89770508 C165.09588351 160.31420532 166.78114768 161.92984467 168.828125 164.02734375 C169.59125 164.80142578 170.354375 165.57550781 171.140625 166.37304688 C171.92953125 167.18322266 172.7184375 167.99339844 173.53125 168.828125 C179.87934747 175.3478851 179.87934747 175.3478851 186.60546875 181.46875 C192.33172249 186.38194684 197.54662745 191.83766298 202.84375 197.203125 C208.97830685 203.41655875 215.08457296 209.52405716 221.78125 215.140625 C222.585625 216.11 223.39 217.079375 224.21875 218.078125 C226.21707502 220.46636709 227.96973642 222.23208704 230.31640625 224.20703125 C236.3189415 229.3965882 241.79453674 235.10865851 247.359375 240.7578125 C251.73596598 245.17467885 256.14090959 249.46146574 260.89453125 253.47265625 C263.29695051 255.59653414 265.52787481 257.85906462 267.78125 260.140625 C268.80568686 261.17111767 269.83052966 262.20120689 270.85571289 263.23095703 C271.40300552 263.78147736 271.95029816 264.33199768 272.51417542 264.89920044 C274.97480891 267.37327931 277.43815852 269.84464667 279.90161133 272.31591797 C281.1990528 273.61841546 282.4955992 274.92180515 283.79125977 276.22607422 C285.67227888 278.11923201 287.55651772 280.00913317 289.44140625 281.8984375 C290.01754166 282.47973419 290.59367706 283.06103088 291.18727112 283.65994263 C293.44593361 285.91891864 295.60040663 288.00741078 298.17749023 289.90576172 C298.70673096 290.3132666 299.23597168 290.72077148 299.78125 291.140625 C299.78125 291.800625 299.78125 292.460625 299.78125 293.140625 C300.7403125 293.5428125 300.7403125 293.5428125 301.71875 293.953125 C303.78125 295.140625 303.78125 295.140625 304.78125 298.140625 C306.78141466 299.34944596 306.78141466 299.34944596 308.78125 300.140625 C308.78125 300.800625 308.78125 301.460625 308.78125 302.140625 C309.31717773 302.34985596 309.85310547 302.55908691 310.40527344 302.7746582 C313.7061578 304.67236145 316.15932121 307.29338357 318.796875 309.99609375 C319.37153503 310.57595535 319.94619507 311.15581696 320.53826904 311.75325012 C322.37409019 313.6068436 324.20310415 315.4669636 326.03125 317.328125 C328.42886853 319.76251682 330.82967345 322.19369812 333.234375 324.62109375 C334.11006638 325.50516907 334.11006638 325.50516907 335.00344849 326.40710449 C337.8297316 329.24333593 340.66920613 332.00000573 343.7265625 334.58984375 C350.34800018 340.2080599 356.30303746 346.59858404 362.40625 352.765625 C364.97880777 355.36494043 367.55477494 357.96080817 370.1328125 360.5546875 C370.71108795 361.14126129 371.2893634 361.72783508 371.88516235 362.33218384 C375.36254367 365.83028679 378.96078746 369.02120581 382.78125 372.140625 C389.23578191 378.53249155 392.85731253 384.16998141 393.28125 393.453125 C393.12358344 400.64769886 390.97934733 406.46483718 386.23828125 411.9140625 C384.78125 413.140625 384.78125 413.140625 382.78125 413.140625 C382.78125 413.800625 382.78125 414.460625 382.78125 415.140625 C381.20703125 416.65625 381.20703125 416.65625 379.09375 418.390625 C376.53490111 420.55959674 374.44188189 422.54786673 372.28125 425.140625 C370.21443144 427.62080727 368.28346023 429.50736906 365.84375 431.578125 C362.59861756 434.33618315 359.90671639 437.24551626 357.20703125 440.52734375 C355.78125 442.140625 355.78125 442.140625 352.84375 444.578125 C350.45307021 446.57848972 348.64758897 448.35980602 346.65625 450.703125 C343.51649429 454.39530989 340.16606572 457.80278694 336.71875 461.203125 C332.51372357 465.35580671 328.57333985 469.60861518 324.78125 474.140625 C323.12765114 475.82225096 321.46022679 477.48458853 319.78125 479.140625 C316.65302824 482.24155825 313.52930566 485.34698992 310.40625 488.453125 C309.58125 489.26974609 308.75625 490.08636719 307.90625 490.92773438 C303.47627564 495.34012947 299.23489236 499.79820182 295.26708984 504.63354492 C293.78125 506.140625 293.78125 506.140625 290.78125 507.140625 C290.09546422 508.46422618 289.43085482 509.79889634 288.78125 511.140625 C287.16992188 512.72192383 287.16992188 512.72192383 285.25 514.28515625 C282.04093279 516.99968535 279.05426014 519.82482247 276.125 522.83984375 C275.32964844 523.65646484 274.53429688 524.47308594 273.71484375 525.31445312 C272.08658174 526.99629358 270.46420863 528.68385452 268.84765625 530.37695312 C262.0518433 537.3214589 256.10870522 541.61664165 246.23828125 542.23828125 C241.06630943 542.03271798 237.24771855 540.45272844 233.40625 537.015625 C232.54 536.066875 231.67375 535.118125 230.78125 534.140625 C229.31338536 532.81307743 227.83402864 531.49819861 226.34765625 530.19140625 C220.36419023 524.83766487 214.72903922 519.16592597 209.09375 513.453125 C200.92684185 505.134661 200.92684185 505.134661 192.23681641 497.37329102 C189.94317286 495.43088808 187.87959295 493.29134949 185.78125 491.140625 C182.59850246 487.92756558 179.40817517 484.72205396 176.21875 481.515625 C175.36861328 480.65710938 174.51847656 479.79859375 173.64257812 478.9140625 C172.82080078 478.0890625 171.99902344 477.2640625 171.15234375 476.4140625 C170.40911865 475.66560059 169.66589355 474.91713867 168.90014648 474.14599609 C166.83594817 472.1040825 166.83594817 472.1040825 164.50805664 470.49853516 C163.93821045 470.0504248 163.36836426 469.60231445 162.78125 469.140625 C162.78125 468.480625 162.78125 467.820625 162.78125 467.140625 C161.90968262 466.75910278 161.90968262 466.75910278 161.02050781 466.36987305 C158.53945358 465.00789005 156.92606897 463.4974806 154.953125 461.47265625 C154.23511719 460.74369141 153.51710938 460.01472656 152.77734375 459.26367188 C152.03613281 458.50119141 151.29492188 457.73871094 150.53125 456.953125 C145.69797373 452.00395312 140.84526697 447.19225907 135.5715332 442.70996094 C133.70313928 441.07215429 131.95765178 439.35209147 130.21875 437.578125 C127.46230072 434.77144429 124.58936144 432.19706809 121.5546875 429.6953125 C119.18369428 427.61677659 116.9960778 425.38472366 114.78125 423.140625 C112.80418095 421.13853831 110.82447058 419.13909852 108.84375 417.140625 C108.34423828 416.63273437 107.84472656 416.12484375 107.33007812 415.6015625 C103.97502365 412.22486251 100.44544685 409.18517738 96.78125 406.140625 C95.09237281 404.49646886 93.42586166 402.8290586 91.78125 401.140625 C83.91776214 393.04865496 83.91776214 393.04865496 75.53125 385.515625 C74.62375 384.731875 73.71625 383.948125 72.78125 383.140625 C72.78125 382.480625 72.78125 381.820625 72.78125 381.140625 C71.8847876 380.73420776 71.8847876 380.73420776 70.97021484 380.31958008 C68.80937475 379.15577271 67.45281393 378.03113299 65.7578125 376.27734375 C65.21125 375.71982422 64.6646875 375.16230469 64.1015625 374.58789062 C63.54210937 374.00716797 62.98265625 373.42644531 62.40625 372.828125 C59.17589091 369.49587374 55.99529533 366.25035556 52.3671875 363.34765625 C51.51382812 362.61933594 50.66046875 361.89101563 49.78125 361.140625 C49.78125 360.480625 49.78125 359.820625 49.78125 359.140625 C49.21277344 358.89957031 48.64429688 358.65851563 48.05859375 358.41015625 C45.33336092 356.89094412 43.51434661 355.06643519 41.34375 352.828125 C40.60253906 352.06886719 39.86132812 351.30960937 39.09765625 350.52734375 C38.33324219 349.73972656 37.56882812 348.95210938 36.78125 348.140625 C32.86844659 344.1626082 28.81584951 340.36330542 24.71875 336.578125 C19.2891472 331.54320845 13.99568421 326.40385309 8.79443359 321.13427734 C5.27482927 317.58569514 1.61180273 314.34578137 -2.21875 311.140625 C-3.0025 310.315625 -3.78625 309.490625 -4.59375 308.640625 C-10.36201978 303.14703473 -15.71748512 299.32198787 -23.8671875 298.96875 C-40.32445597 300.17160683 -56.03424996 321.8620514 -66.84375 332.765625 C-69.93712061 335.88579461 -73.03393315 339.00249003 -76.1328125 342.1171875 C-77.17219467 343.16901718 -77.17219467 343.16901718 -78.23257446 344.24209595 C-81.47262283 347.49816988 -84.74931642 350.647726 -88.22851562 353.64819336 C-92.40742315 357.25259587 -96.28075347 361.10969012 -100.1484375 365.04296875 C-101.61705965 366.52421531 -103.08581332 368.00533148 -104.5546875 369.48632812 C-106.84108412 371.79770593 -109.12583281 374.11067146 -111.40820312 376.42602539 C-113.62981047 378.67764807 -115.85744405 380.92316432 -118.0859375 383.16796875 C-119.11556107 384.21778175 -119.11556107 384.21778175 -120.16598511 385.2888031 C-121.11805344 386.24593956 -121.11805344 386.24593956 -122.08935547 387.22241211 C-122.64702606 387.78754013 -123.20469666 388.35266815 -123.77926636 388.93492126 C-125.21875 390.140625 -125.21875 390.140625 -127.21875 390.140625 C-127.486875 390.78 -127.755 391.419375 -128.03125 392.078125 C-129.21875 394.140625 -129.21875 394.140625 -132.21875 395.140625 C-133.42757096 397.14078966 -133.42757096 397.14078966 -134.21875 399.140625 C-134.87875 399.140625 -135.53875 399.140625 -136.21875 399.140625 C-136.486875 399.78 -136.755 400.419375 -137.03125 401.078125 C-138.21875 403.140625 -138.21875 403.140625 -141.21875 404.140625 C-141.21875 404.800625 -141.21875 405.460625 -141.21875 406.140625 C-142.71922302 407.61985779 -142.71922302 407.61985779 -144.77514648 409.32592773 C-148.82167795 412.7687166 -152.58761509 416.39480683 -156.31640625 420.17578125 C-156.9543663 420.81752792 -157.59232635 421.4592746 -158.24961853 422.12046814 C-160.262648 424.14557151 -162.27236709 426.17390877 -164.28125 428.203125 C-166.93581907 430.88449179 -169.59382334 433.56238566 -172.25390625 436.23828125 C-173.14638817 437.14321068 -173.14638817 437.14321068 -174.05690002 438.06642151 C-177.48383717 441.51307045 -181.00914963 444.75467093 -184.74353027 447.86669922 C-187.18300689 449.9733089 -189.12613407 452.42620697 -191.15234375 454.91796875 C-192.91368872 456.81249671 -194.67187632 458.41489607 -196.63671875 460.0859375 C-200.39738095 463.32911317 -203.9088649 466.76485823 -207.3984375 470.29296875 C-208.21330376 471.11615852 -208.21330376 471.11615852 -209.04463196 471.95597839 C-211.3091438 474.24807007 -213.5697147 476.54397234 -215.82617188 478.84399414 C-217.4917913 480.53962686 -219.16342587 482.22913801 -220.8359375 483.91796875 C-221.34736298 484.44285385 -221.85878845 484.96773895 -222.38571167 485.50852966 C-223.62592829 486.75757659 -224.91808895 487.95465017 -226.21875 489.140625 C-226.87875 489.140625 -227.53875 489.140625 -228.21875 489.140625 C-228.54875 490.130625 -228.87875 491.120625 -229.21875 492.140625 C-230.671875 493.5703125 -230.671875 493.5703125 -232.46875 495.015625 C-237.2723322 498.9052513 -241.48494954 503.40539691 -245.82342529 507.79660034 C-248.23331237 510.23356333 -250.64879405 512.66495145 -253.06445312 515.09619141 C-254.32864297 516.37042994 -255.59103081 517.64645895 -256.8515625 518.92431641 C-278.68490163 541.04884285 -278.68490163 541.04884285 -290.59375 541.578125 C-305.86869982 541.07799022 -317.1717047 528.61712602 -327.15625 518.328125 C-328.696382 516.7527762 -330.23874414 515.17969874 -331.78382874 513.60920715 C-333.16879859 512.19975525 -334.54736294 510.78401743 -335.92553711 509.36791992 C-338.20649923 507.01749363 -338.20649923 507.01749363 -341.21875 505.140625 C-341.21875 504.480625 -341.21875 503.820625 -341.21875 503.140625 C-341.858125 502.8725 -342.4975 502.604375 -343.15625 502.328125 C-345.21875 501.140625 -345.21875 501.140625 -346.21875 498.140625 C-348.21891466 496.93180404 -348.21891466 496.93180404 -350.21875 496.140625 C-350.21875 495.480625 -350.21875 494.820625 -350.21875 494.140625 C-350.858125 493.8725 -351.4975 493.604375 -352.15625 493.328125 C-354.21875 492.140625 -354.21875 492.140625 -355.21875 489.140625 C-356.53325756 488.4375659 -357.86958607 487.77464308 -359.21875 487.140625 C-360.89874268 485.69441223 -360.89874268 485.69441223 -362.57519531 483.99536133 C-363.20975647 483.35742142 -363.84431763 482.71948151 -364.49810791 482.06221008 C-365.17420105 481.37265732 -365.85029419 480.68310455 -366.546875 479.97265625 C-367.2547113 479.25961838 -367.96254761 478.54658051 -368.6918335 477.81193542 C-370.95560772 475.53036306 -373.21260671 473.24224158 -375.46875 470.953125 C-377.71141506 468.68268625 -379.95557159 466.41377571 -382.20281982 464.14787292 C-383.59927401 462.73933469 -384.99304967 461.32813374 -386.38360596 459.91377258 C-390.26146047 455.9967847 -394.25837644 452.29988413 -398.43249512 448.70079041 C-400.62448411 446.78624538 -402.68657471 444.77041363 -404.7265625 442.6953125 C-405.48582031 441.92832031 -406.24507813 441.16132813 -407.02734375 440.37109375 C-407.79175781 439.59378906 -408.55617188 438.81648438 -409.34375 438.015625 C-414.13688975 433.14246622 -418.89008834 428.42602459 -424.21875 424.140625 C-425.92983689 422.51959532 -427.59128306 420.84559037 -429.21875 419.140625 C-429.87359375 418.45742188 -430.5284375 417.77421875 -431.203125 417.0703125 C-438.26798892 409.46398091 -441.39662253 402.62028144 -441.21875 392.140625 C-440.17754576 383.87949138 -434.87031582 378.83326324 -429.21875 373.140625 C-428.15551102 372.04107868 -427.09304344 370.94078604 -426.03125 369.83984375 C-424.94931196 368.73040841 -423.86599444 367.62231656 -422.78125 366.515625 C-422.26119385 365.98219482 -421.7411377 365.44876465 -421.20532227 364.89916992 C-419.91497287 363.6066958 -418.57089004 362.36830909 -417.21875 361.140625 C-416.55875 361.140625 -415.89875 361.140625 -415.21875 361.140625 C-415.21875 360.480625 -415.21875 359.820625 -415.21875 359.140625 C-413.9609375 357.90625 -413.9609375 357.90625 -412.09375 356.390625 C-407.07260937 352.15516644 -402.53168511 347.48133442 -397.96826172 342.76464844 C-397.38318848 342.16813477 -396.79811523 341.57162109 -396.1953125 340.95703125 C-395.67018066 340.41506104 -395.14504883 339.87309082 -394.60400391 339.31469727 C-393.21875 338.140625 -393.21875 338.140625 -391.21875 338.140625 C-390.97769531 337.56183594 -390.73664063 336.98304688 -390.48828125 336.38671875 C-388.97172964 333.70358898 -387.25127549 332.20272938 -384.90625 330.203125 C-379.43651947 325.4091606 -374.31601351 320.32222183 -369.19921875 315.15625 C-368.69825684 314.65158203 -368.19729492 314.14691406 -367.68115234 313.62695312 C-366.25909375 312.18162879 -364.85770814 310.71605502 -363.45703125 309.25 C-361.21875 307.140625 -361.21875 307.140625 -359.21875 307.140625 C-359.21875 306.480625 -359.21875 305.820625 -359.21875 305.140625 C-357.890625 303.8359375 -357.890625 303.8359375 -355.96875 302.265625 C-352.16556997 299.04339254 -348.65031915 295.62572218 -345.15625 292.078125 C-341.00391766 287.8727649 -336.75073027 283.93269012 -332.21875 280.140625 C-330.53892028 278.48722617 -328.87485732 276.81778453 -327.21875 275.140625 C-311.55022156 259.30339714 -311.55022156 259.30339714 -305.9296875 254.6328125 C-303.57497989 252.5791634 -301.41437176 250.36403944 -299.21875 248.140625 C-296.61744454 245.5127756 -294.01226606 242.88880203 -291.40625 240.265625 C-290.73271484 239.58371094 -290.05917969 238.90179688 -289.36523438 238.19921875 C-285.42464529 234.23977518 -281.37645309 230.49566877 -277.14477539 226.85058594 C-273.44743327 223.56801727 -270.05436541 219.97788849 -266.625 216.41992188 C-265.19176047 214.95781378 -263.70912458 213.54444808 -262.21875 212.140625 C-261.55875 212.140625 -260.89875 212.140625 -260.21875 212.140625 C-259.55875 210.820625 -258.89875 209.500625 -258.21875 208.140625 C-257.55875 208.140625 -256.89875 208.140625 -256.21875 208.140625 C-255.82236328 207.23763672 -255.82236328 207.23763672 -255.41796875 206.31640625 C-254.15286659 204.0210906 -253.06105067 202.95465402 -251.03125 201.328125 C-245.97326666 197.06682035 -241.38923278 192.36537978 -236.76293945 187.6472168 C-233.24584558 184.0830499 -229.64372018 180.73741547 -225.81396484 177.51269531 C-223.48503624 175.50954582 -221.36148111 173.34118094 -219.21875 171.140625 C-216.32892619 168.19716513 -213.43074715 165.26205215 -210.53125 162.328125 C-209.75974609 161.53986328 -208.98824219 160.75160156 -208.19335938 159.93945312 C-207.45537109 159.19501953 -206.71738281 158.45058594 -205.95703125 157.68359375 C-205.28712158 157.00321045 -204.61721191 156.32282715 -203.92700195 155.62182617 C-202.21875 154.140625 -202.21875 154.140625 -200.21875 154.140625 C-199.88875 153.150625 -199.55875 152.160625 -199.21875 151.140625 C-197.765625 149.7109375 -197.765625 149.7109375 -195.96875 148.265625 C-192.84987826 145.74016691 -190.02894677 142.99881374 -187.21875 140.140625 C-184.22220698 137.11634973 -181.22065018 134.09708143 -178.21875 131.078125 C-177.4246875 130.27568359 -176.630625 129.47324219 -175.8125 128.64648438 C-172.0871883 124.90565054 -168.38695811 121.38980112 -164.21875 118.140625 C-162.52570313 116.50076285 -160.86433695 114.82810808 -159.21875 113.140625 C-156.16239742 110.03035822 -153.09749796 106.92863272 -150.03125 103.828125 C-149.21205078 102.99216797 -148.39285156 102.15621094 -147.54882812 101.29492188 C-146.76572266 100.50537109 -145.98261719 99.71582031 -145.17578125 98.90234375 C-144.10807495 97.818927 -144.10807495 97.818927 -143.01879883 96.71362305 C-141.21875 95.140625 -141.21875 95.140625 -139.21875 95.140625 C-138.94812744 94.53951904 -138.67750488 93.93841309 -138.39868164 93.3190918 C-137.22472894 91.15166371 -136.15964822 89.91800435 -134.33984375 88.28515625 C-133.75638184 87.7533374 -133.17291992 87.22151855 -132.57177734 86.67358398 C-131.93965332 86.10583252 -131.3075293 85.53808105 -130.65625 84.953125 C-123.19098564 78.12572131 -116.02449247 71.0342778 -108.8984375 63.85546875 C-108.26389648 63.21722168 -107.62935547 62.57897461 -106.97558594 61.92138672 C-105.87087034 60.80162636 -104.77392879 59.67408788 -103.68847656 58.53564453 C-102.56723802 57.36895038 -101.39802439 56.24862456 -100.21875 55.140625 C-99.55875 55.140625 -98.89875 55.140625 -98.21875 55.140625 C-97.95570068 54.53984131 -97.69265137 53.93905762 -97.42163086 53.32006836 C-96.14531603 51.00757344 -95.01699662 49.9135112 -92.97265625 48.26953125 C-88.9661576 44.87788683 -85.25485075 41.26408946 -81.55859375 37.54296875 C-80.96084137 36.94191315 -80.36308899 36.34085754 -79.7472229 35.72158813 C-77.88159876 33.84237088 -76.01850157 31.96068413 -74.15625 30.078125 C-71.68919523 27.58424401 -69.21868508 25.09385925 -66.74609375 22.60546875 C-65.91923317 21.76616066 -65.91923317 21.76616066 -65.07566833 20.90989685 C-61.75550621 17.56920571 -58.32255375 14.44739933 -54.70248413 11.43336487 C-52.8658985 9.83319445 -51.39382501 8.06525035 -49.90625 6.140625 C-36.77570984 -9.18810827 -16.42022028 -10.28861903 0 0 Z " fill="#303030" transform="translate(754.21875,42.859375)"/>
<path d="M0 0 C0.7386026 -0.00100708 1.4772052 -0.00201416 2.2381897 -0.00305176 C13.13938537 0.00701412 23.46283643 0.48487037 34.0625 3.25 C35.87427734 3.70246094 35.87427734 3.70246094 37.72265625 4.1640625 C59.97231353 10.11990112 79.43878669 20.48902184 97.0625 35.25 C97.77277344 35.83652344 98.48304688 36.42304687 99.21484375 37.02734375 C103.98589271 41.06579402 108.08198496 45.43838842 112.0625 50.25 C112.70058594 51.00023437 113.33867188 51.75046875 113.99609375 52.5234375 C126.56701493 67.66735424 135.5555296 85.417002 141.0625 104.25 C141.35898438 105.219375 141.65546875 106.18875 141.9609375 107.1875 C149.06988983 132.52633997 147.42478464 160.38866745 139.66210938 185.29296875 C139.14958161 186.96577924 138.6867663 188.6536844 138.234375 190.34375 C132.84571633 209.15122536 120.34822911 226.24839959 107.0625 240.25 C106.61922363 240.7258252 106.17594727 241.20165039 105.71923828 241.69189453 C98.22094505 249.70695144 90.24408498 256.24832566 81.0625 262.25 C80.1446875 262.86359375 79.226875 263.4771875 78.28125 264.109375 C58.71027038 276.36935648 34.03448281 284.31644525 10.8828125 284.453125 C10.11178192 284.45882507 9.34075134 284.46452515 8.5463562 284.47039795 C6.9176366 284.47979958 5.28889839 284.48636256 3.66015625 284.49023438 C1.22880453 284.49983687 -1.20166225 284.53086242 -3.6328125 284.5625 C-42.49729161 284.82454047 -77.84292035 268.53863297 -105.48681641 241.74853516 C-115.60177999 231.57310351 -123.39980227 220.0025462 -129.9375 207.25 C-130.29328125 206.6003125 -130.6490625 205.950625 -131.015625 205.28125 C-147.35025282 174.68623281 -149.21165262 135.34940935 -139.6875 102.375 C-133.98527188 83.89620336 -124.84613549 67.42352766 -112.9375 52.25 C-112.12732422 51.09371094 -112.12732422 51.09371094 -111.30078125 49.9140625 C-110.62595703 49.09035156 -110.62595703 49.09035156 -109.9375 48.25 C-109.2775 48.25 -108.6175 48.25 -107.9375 48.25 C-107.710625 47.693125 -107.48375 47.13625 -107.25 46.5625 C-105.56199964 43.58840412 -103.47073483 41.52991135 -100.9375 39.25 C-100.2775 39.25 -99.6175 39.25 -98.9375 39.25 C-98.6075 38.26 -98.2775 37.27 -97.9375 36.25 C-95.82544553 34.42529988 -93.72748471 32.73251795 -91.5 31.0625 C-90.90123047 30.59908203 -90.30246094 30.13566406 -89.68554688 29.65820312 C-85.20318253 26.25 -85.20318253 26.25 -82.9375 26.25 C-82.9375 25.59 -82.9375 24.93 -82.9375 24.25 C-56.5026051 8.71976768 -30.74895679 0.02899357 0 0 Z " fill="#303030" transform="translate(965.9375,1052.75)"/>
<path d="M0 0 C2.42103771 2.38693859 4.52157624 5.00371884 6.6640625 7.640625 C7.7700944 8.62078887 8.89651567 9.5782806 10.0390625 10.515625 C12.69408382 12.71090237 14.93600995 15.01292177 17.1640625 17.640625 C19.83670186 20.79052138 22.64208097 23.39195705 25.828125 26.00585938 C27.66781172 27.6439634 29.20410825 29.35077789 30.7890625 31.234375 C35.00691265 36.11726184 39.56764256 40.61681833 44.1640625 45.140625 C49.37919092 50.27336592 54.48248544 55.41833863 59.23486328 60.98657227 C61.95699991 64.13697808 64.9832264 66.98167704 67.97265625 69.875 C68.79894531 70.68453125 69.62523437 71.4940625 70.4765625 72.328125 C71.26675781 73.09511719 72.05695313 73.86210938 72.87109375 74.65234375 C74.6640625 76.640625 74.6640625 76.640625 74.6640625 78.640625 C75.26226807 78.90834717 75.86047363 79.17606934 76.47680664 79.4519043 C78.69655371 80.65828319 79.9786727 81.79629922 81.66015625 83.66015625 C82.21300293 84.26448486 82.76584961 84.86881348 83.33544922 85.49145508 C84.20967529 86.46248169 84.20967529 86.46248169 85.1015625 87.453125 C90.48723102 93.34929361 95.9998329 99.06245152 101.75170898 104.6027832 C103.09170488 105.91301539 104.3832003 107.272528 105.6640625 108.640625 C105.6640625 109.300625 105.6640625 109.960625 105.6640625 110.640625 C106.2209375 110.8675 106.7778125 111.094375 107.3515625 111.328125 C110.32565838 113.01612536 112.38415115 115.10739017 114.6640625 117.640625 C114.6640625 118.300625 114.6640625 118.960625 114.6640625 119.640625 C115.24929688 119.89199219 115.83453125 120.14335938 116.4375 120.40234375 C118.9429648 121.79573382 120.41393688 123.29301332 122.2890625 125.453125 C123.17464844 126.45279297 123.17464844 126.45279297 124.078125 127.47265625 C127.15641183 131.68065918 127.95642832 135.34785169 127.9765625 140.515625 C127.99332031 141.50304687 128.01007813 142.49046875 128.02734375 143.5078125 C127.17263615 150.87851673 123.6599122 155.23518471 118.53515625 160.23046875 C117.64969872 161.11455162 117.64969872 161.11455162 116.74635315 162.01649475 C115.5062889 163.25055225 114.26140274 164.47978158 113.01196289 165.7043457 C111.09320967 167.58631771 109.19121359 169.48407798 107.29101562 171.38476562 C106.08167336 172.58428601 104.87141888 173.78288756 103.66015625 174.98046875 C103.08929794 175.54910141 102.51843964 176.11773407 101.93028259 176.70359802 C97.89626999 180.640625 97.89626999 180.640625 95.6640625 180.640625 C95.3340625 181.630625 95.0040625 182.620625 94.6640625 183.640625 C93.2109375 185.03515625 93.2109375 185.03515625 91.4140625 186.453125 C89.03004779 188.41643123 87.2220445 190.17331335 85.2265625 192.578125 C83.2002923 194.99976499 81.37914851 196.82453336 79 198.83984375 C74.71217031 202.54909113 70.70953421 206.48385514 66.7265625 210.515625 C66.00218994 211.24378418 65.27781738 211.97194336 64.53149414 212.72216797 C62.23987947 215.02588146 59.95155598 217.33281974 57.6640625 219.640625 C54.64621169 222.68527279 51.62492834 225.72645467 48.6015625 228.765625 C47.92424072 229.45124512 47.24691895 230.13686523 46.54907227 230.84326172 C42.65041287 234.76160404 38.64884946 238.47420228 34.42797852 242.04443359 C32.66692109 243.63803822 31.16880142 245.30594696 29.6640625 247.140625 C27.66225927 249.56524148 25.6193788 251.60992333 23.20703125 253.625 C19.66047411 256.68738275 16.31894297 259.91810884 13.02734375 263.25 C12.53555634 263.74733643 12.04376892 264.24467285 11.53707886 264.75708008 C9.49681119 266.824809 7.46044306 268.89628999 5.4284668 270.97216797 C3.92419996 272.50672525 2.41369381 274.03492285 0.90234375 275.5625 C-0.4273645 276.91746582 -0.4273645 276.91746582 -1.78393555 278.29980469 C-7.5778989 283.61430967 -12.61458662 284.76842667 -20.3359375 284.640625 C-32.29222463 283.13867819 -40.99363712 271.12666096 -48.9921875 263.046875 C-49.86113647 262.1741394 -50.73008545 261.30140381 -51.62536621 260.40222168 C-54.36469603 257.65080204 -57.10071623 254.89612863 -59.8359375 252.140625 C-63.46850785 248.48153032 -67.10433686 244.82571918 -70.7421875 241.171875 C-71.57544556 240.3303186 -72.40870361 239.48876221 -73.26721191 238.6217041 C-74.41981506 237.46414612 -74.41981506 237.46414612 -75.59570312 236.28320312 C-76.27169556 235.60197388 -76.94768799 234.92074463 -77.64416504 234.21887207 C-79.26354722 232.55885275 -79.26354722 232.55885275 -81.3359375 231.640625 C-81.3359375 230.980625 -81.3359375 230.320625 -81.3359375 229.640625 C-83.3159375 228.650625 -83.3159375 228.650625 -85.3359375 227.640625 C-85.3359375 226.980625 -85.3359375 226.320625 -85.3359375 225.640625 C-85.9753125 225.3725 -86.6146875 225.104375 -87.2734375 224.828125 C-89.3359375 223.640625 -89.3359375 223.640625 -90.3359375 220.640625 C-92.33610216 219.43180404 -92.33610216 219.43180404 -94.3359375 218.640625 C-94.3359375 217.980625 -94.3359375 217.320625 -94.3359375 216.640625 C-94.87186523 216.43139404 -95.40779297 216.22216309 -95.95996094 216.0065918 C-99.2608453 214.10888855 -101.71400871 211.48786643 -104.3515625 208.78515625 C-104.92622253 208.20529465 -105.50088257 207.62543304 -106.09295654 207.02799988 C-107.92877769 205.1744064 -109.75779165 203.3142864 -111.5859375 201.453125 C-113.98355602 199.01873319 -116.38436801 196.58755886 -118.7890625 194.16015625 C-119.36959381 193.57403564 -119.95012512 192.98791504 -120.54824829 192.3840332 C-124.0432033 188.87672055 -127.62768802 185.55182267 -131.40429688 182.34741211 C-135.62462421 178.61835392 -139.51017987 174.52561438 -143.4609375 170.515625 C-149.8632276 163.90527457 -149.8632276 163.90527457 -156.71875 157.78125 C-163.20637585 152.47495304 -167.24411086 146.76495713 -168.31640625 138.3515625 C-168.35679763 132.74523846 -166.82885812 128.45022576 -163.2734375 124.140625 C-162.3040625 123.315625 -161.3346875 122.490625 -160.3359375 121.640625 C-152.60381037 114.9212297 -145.38761697 107.76415319 -138.20068359 100.46826172 C-134.21813823 96.44316604 -130.20401667 92.57968614 -125.86279297 88.94458008 C-123.55154858 86.97074632 -121.45789845 84.81587005 -119.3359375 82.640625 C-116.23659339 79.51082963 -113.12957158 76.38867966 -110.0234375 73.265625 C-109.20681641 72.440625 -108.39019531 71.615625 -107.54882812 70.765625 C-103.89772702 67.09997768 -100.24409209 63.49863771 -96.31640625 60.12890625 C-90.72082967 55.32529527 -85.66192931 49.97542299 -80.51953125 44.69726562 C-79.74996094 43.91673828 -78.98039063 43.13621094 -78.1875 42.33203125 C-77.49479004 41.62248291 -76.80208008 40.91293457 -76.08837891 40.18188477 C-74.3359375 38.640625 -74.3359375 38.640625 -72.3359375 38.640625 C-72.0678125 38.00125 -71.7996875 37.361875 -71.5234375 36.703125 C-70.3359375 34.640625 -70.3359375 34.640625 -67.3359375 33.640625 C-66.12711654 31.64046034 -66.12711654 31.64046034 -65.3359375 29.640625 C-64.6759375 29.640625 -64.0159375 29.640625 -63.3359375 29.640625 C-63.0059375 28.650625 -62.6759375 27.660625 -62.3359375 26.640625 C-60.83544922 25.17236328 -60.83544922 25.17236328 -58.890625 23.5859375 C-55.59164695 20.78952092 -52.53485492 17.86985081 -49.53125 14.7578125 C-48.69980469 13.90058594 -47.86835937 13.04335938 -47.01171875 12.16015625 C-45.31104224 10.39697402 -43.61830111 8.62610313 -41.93359375 6.84765625 C-30.48824693 -4.88072851 -14.23258891 -12.06548689 0 0 Z " fill="#303030" transform="translate(750.3359375,563.359375)"/>
<path d="M0 0 C1.11290405 -0.00426498 2.22580811 -0.00852997 3.37243652 -0.01292419 C4.5993924 -0.01247101 5.82634827 -0.01201782 7.09048462 -0.0115509 C8.37847961 -0.01490952 9.66647461 -0.01826813 10.99349976 -0.02172852 C14.53540113 -0.03058345 18.07727836 -0.03290747 21.61918974 -0.0335443 C23.83545019 -0.03425484 26.05170449 -0.03638939 28.26796341 -0.03904152 C36.01056559 -0.0483052 43.75315052 -0.0523758 51.49575806 -0.05158997 C58.69262426 -0.05099134 65.88941497 -0.06149813 73.08626211 -0.07733363 C79.27582663 -0.09046314 85.46536669 -0.09577149 91.65494502 -0.09513456 C95.34638976 -0.09488083 99.03776768 -0.09766143 102.72919846 -0.10831261 C106.86009501 -0.11990434 110.99082613 -0.11521388 115.12173462 -0.10920715 C116.32844818 -0.11482666 117.53516174 -0.12044617 118.77844238 -0.12623596 C140.88248879 -0.04498543 161.31886948 7.19838583 177.75308228 22.13371277 C178.66831665 22.95613464 179.58355103 23.77855652 180.52651978 24.62590027 C195.13238175 38.43144104 205.28681984 58.36153162 206.22183228 78.64933777 C206.25575343 80.8938973 206.26563104 83.13893201 206.25308228 85.38371277 C206.24808716 86.56521912 206.24309204 87.74672546 206.23794556 88.96403503 C206.04750706 98.55097155 204.62195937 106.34728926 200.75308228 115.13371277 C200.28386353 116.21523621 199.81464478 117.29675964 199.33120728 118.41105652 C196.22660934 125.02919137 192.53102656 131.56765396 187.75308228 137.13371277 C187.09308228 137.13371277 186.43308228 137.13371277 185.75308228 137.13371277 C185.52620728 137.69574402 185.29933228 138.25777527 185.06558228 138.83683777 C183.38378593 141.77998137 181.28199117 143.63416009 178.75308228 145.88371277 C177.42276978 147.08254089 177.42276978 147.08254089 176.06558228 148.30558777 C173.75308228 150.13371277 173.75308228 150.13371277 171.75308228 150.13371277 C171.75308228 150.79371277 171.75308228 151.45371277 171.75308228 152.13371277 C170.08828735 153.33879089 170.08828735 153.33879089 167.77261353 154.66496277 C166.93794556 155.14578308 166.10327759 155.62660339 165.24331665 156.12199402 C164.35966431 156.62086121 163.47601196 157.11972839 162.56558228 157.63371277 C161.26910767 158.38201355 161.26910767 158.38201355 159.94644165 159.14543152 C155.94684859 161.43178893 152.06606575 163.49067145 147.75308228 165.13371277 C152.45723077 174.91557449 157.54429932 184.39792317 162.97891235 193.7931366 C166.83165588 200.47182409 170.54037706 207.21742871 174.19058228 214.00871277 C178.5437559 222.0996181 182.97346333 230.1401895 187.50308228 238.13371277 C188.04013794 239.08487976 188.5771936 240.03604675 189.13052368 241.01603699 C191.57137077 245.32937642 194.03403047 249.62522406 196.56948853 253.88371277 C196.99455688 254.60816589 197.41962524 255.33261902 197.85757446 256.07902527 C198.63062592 257.39390018 199.41540712 258.70199239 200.21499634 260.00090027 C202.66151852 264.19094777 203.22170375 267.31862713 202.75308228 272.13371277 C200.99293097 275.31874847 200.25417311 275.96668249 196.75308228 277.13371277 C194.88793966 277.23206365 193.01948455 277.27193896 191.15176392 277.27897644 C190.00369766 277.28535629 188.85563141 277.29173615 187.67277527 277.29830933 C186.43212814 277.29942215 185.19148102 277.30053497 183.91323853 277.30168152 C182.63959946 277.30500992 181.36596039 277.30833832 180.0537262 277.31176758 C177.35785431 277.31683448 174.66208322 277.31960806 171.96621704 277.3190155 C168.5150446 277.31891387 165.06407783 277.33256971 161.61295414 277.34978771 C158.31722328 277.36359175 155.02149438 277.36299668 151.72573853 277.36418152 C150.48711563 277.37136703 149.24849274 277.37855255 147.97233582 277.38595581 C146.8211174 277.38287918 145.66989899 277.37980255 144.48379517 277.37663269 C143.47136246 277.37805771 142.45892975 277.37948273 141.41581726 277.38095093 C138.64751777 277.12391098 137.05509012 276.67101191 134.75308228 275.13371277 C133.40878698 272.86727282 132.2849871 270.70396758 131.19058228 268.32121277 C130.49364694 266.86569013 129.79430012 265.41132045 129.09292603 263.95793152 C128.71893677 263.1785321 128.34494751 262.39913269 127.95962524 261.59611511 C125.81844067 257.22622689 123.52844684 252.93480236 121.25308228 248.63371277 C117.61658291 241.73258628 114.06114541 234.80035652 110.60073853 227.80949402 C108.39639751 223.37370943 106.10178091 218.99460557 103.75308228 214.63371277 C99.98177493 207.62514525 96.41092302 200.52779262 92.87857056 193.39640808 C91.61411644 190.85433416 90.33861059 188.31797724 89.06167603 185.78215027 C88.6058313 184.8755365 88.14998657 183.96892273 87.68032837 183.03483582 C86.78488562 181.25436243 85.88811982 179.4745537 84.98989868 177.69548035 C84.37960815 176.47961243 84.37960815 176.47961243 83.75698853 175.23918152 C83.21280273 174.15866516 83.21280273 174.15866516 82.65762329 173.05632019 C81.75308228 171.13371277 81.75308228 171.13371277 80.75308228 168.13371277 C71.84308228 168.13371277 62.93308228 168.13371277 53.75308228 168.13371277 C53.76879272 171.1974115 53.78450317 174.26111023 53.8006897 177.41764832 C53.85038064 187.5357664 53.88352933 197.65388984 53.90851879 207.77209759 C53.92418014 213.90726865 53.94542727 220.04231478 53.97940063 226.17741394 C54.0119769 232.09720909 54.02993176 238.016884 54.037714 243.93676186 C54.04326059 246.19621995 54.05409159 248.4556714 54.07027245 250.71507835 C54.09202331 253.87779886 54.09505013 257.0400214 54.09365845 260.20280457 C54.10444427 261.13860352 54.1152301 262.07440247 54.12634277 263.03855896 C54.10329421 267.87360795 53.96873174 271.2401215 50.75308228 275.13371277 C48.2278774 276.39631521 46.45903535 276.27437487 43.63247681 276.29484558 C42.56441803 276.30445313 41.49635925 276.31406067 40.39593506 276.32395935 C39.23762177 276.32820923 38.07930847 276.33245911 36.88589478 276.33683777 C35.69962494 276.34253784 34.5133551 276.34823792 33.2911377 276.35411072 C30.77764786 276.36357025 28.26414556 276.37009847 25.75064087 276.37394714 C21.90097474 276.38365504 18.0518418 276.41467127 14.20230103 276.44621277 C11.76350212 276.45274235 9.32469939 276.457993 6.88589478 276.46183777 C5.15449753 276.48035797 5.15449753 276.48035797 3.38812256 276.49925232 C2.31375946 276.49625122 1.23939636 276.49325012 0.13247681 276.49015808 C-0.81191254 276.49380371 -1.75630188 276.49744934 -2.72930908 276.50120544 C-5.73043499 276.06313426 -7.07711614 275.22675983 -9.24691772 273.13371277 C-10.18935163 270.30641105 -10.37377423 268.58248196 -10.37834549 265.65555 C-10.38218663 264.73304392 -10.38602778 263.81053784 -10.38998532 262.86007702 C-10.38911884 261.8450158 -10.38825236 260.82995457 -10.38735962 259.78413391 C-10.39033074 258.70704064 -10.39330186 257.62994737 -10.39636302 256.52021492 C-10.40506962 252.89283795 -10.40655992 249.2654939 -10.40805054 245.6381073 C-10.41267727 243.04482451 -10.41770173 240.45154241 -10.4230957 237.85826111 C-10.43668082 230.80047861 -10.44270387 223.74270179 -10.44710636 216.68490839 C-10.44986818 212.27917898 -10.4541054 207.87345177 -10.45861053 203.46772385 C-10.47080286 191.27261811 -10.48110262 179.07751412 -10.48448563 166.88240242 C-10.48481498 165.71152312 -10.48481498 165.71152312 -10.48515098 164.5169897 C-10.48536926 163.73452503 -10.48558753 162.95206036 -10.48581243 162.14588463 C-10.48625589 160.56028438 -10.48670246 158.97468412 -10.4871521 157.38908386 C-10.48737353 156.60256962 -10.48759496 155.81605538 -10.4878231 155.00570737 C-10.49177233 142.25725935 -10.50923033 129.50886845 -10.53251162 116.76044251 C-10.55621415 103.67590752 -10.56868696 90.59140121 -10.56985354 77.5068444 C-10.57077086 70.15866159 -10.57653755 62.81055323 -10.59467316 55.4623909 C-10.61166566 48.55300167 -10.61333501 41.64375609 -10.60453415 34.73435211 C-10.60376098 32.19505561 -10.60814308 29.65575167 -10.6179924 27.11647415 C-10.63062818 23.65656509 -10.62488044 20.19716384 -10.6144104 16.73725891 C-10.6224668 15.72665913 -10.63052321 14.71605934 -10.63882375 13.67483532 C-10.5777984 5.08365647 -10.5777984 5.08365647 -7.24691772 1.13371277 C-4.68428766 -0.14760226 -2.8702487 0.00495511 0 0 Z " fill="#303030" transform="translate(1210.2469177246094,1056.8662872314453)"/>
<path d="M0 0 C0.94746094 -0.02835938 1.89492187 -0.05671875 2.87109375 -0.0859375 C6.41110637 0.52033462 7.23793734 1.65070152 9.5625 4.375 C10.91355986 6.77078297 12.14621868 9.12246691 13.328125 11.59765625 C13.67184143 12.30148941 14.01555786 13.00532257 14.36968994 13.73048401 C15.44444796 15.94044638 16.50558767 18.15645341 17.5625 20.375 C17.88887451 21.05826355 18.21524902 21.7415271 18.55151367 22.44549561 C20.49158548 26.51627429 22.4094775 30.5971673 24.31777954 34.68292236 C26.04980564 38.39098326 27.78840677 42.09595733 29.52734375 45.80078125 C29.87270676 46.53677551 30.21806976 47.27276978 30.57389832 48.03106689 C33.63250342 54.54093373 36.74636272 61.02351825 39.875 67.5 C44.29600726 76.65636416 48.56131661 85.87603853 52.77075195 95.13134766 C55.61037745 101.35590589 58.58418337 107.47508872 61.69140625 113.5703125 C64.27080992 118.72911984 66.6141755 123.99981192 69 129.25 C72.38500984 136.69805245 75.85437305 144.072793 79.57397461 151.35888672 C82.40678046 156.95542314 84.99007715 162.65488469 87.5625 168.375 C90.43032523 174.74764378 93.33892762 181.07960523 96.5 187.3125 C103.09886229 200.32766048 109.28985135 213.54191087 115.5078125 226.7421875 C115.84972122 227.46797501 116.19162994 228.19376251 116.54389954 228.94154358 C118.28747836 232.64477913 120.02744681 236.34965506 121.76147461 240.05737305 C124.65736168 246.24409407 127.55892252 252.42053478 130.62109375 258.52734375 C131.05341309 259.39907227 131.48573242 260.27080078 131.93115234 261.16894531 C132.69381233 262.69800841 133.47020141 264.22035062 134.26416016 265.73339844 C136.53808955 270.32164275 136.98502756 273.43002325 135.5625 278.375 C132.21899673 280.60400218 131.13895509 280.62730973 127.23657227 280.63378906 C126.14856827 280.64009338 125.06056427 280.64639771 123.93959045 280.65289307 C122.76456467 280.6488446 121.58953888 280.64479614 120.37890625 280.640625 C119.17185532 280.64253845 117.96480438 280.6444519 116.72117615 280.64642334 C114.166573 280.64778534 111.61196293 280.6440879 109.05737305 280.63574219 C105.14421032 280.62505248 101.23150768 280.63563253 97.31835938 280.6484375 C94.83854065 280.64711573 92.35872221 280.64455296 89.87890625 280.640625 C88.11940392 280.64669769 88.11940392 280.64669769 86.32435608 280.65289307 C84.68762184 280.64343658 84.68762184 280.64343658 83.01782227 280.63378906 C81.57911522 280.63140228 81.57911522 280.63140228 80.11134338 280.62896729 C77.43482612 280.36227855 75.82881419 279.79633931 73.5625 278.375 C68.93147737 272.58932561 66.1118201 265.40592889 63.27416992 258.61279297 C60.64092121 252.34376133 57.63406706 246.51813411 54.5625 240.375 C18.2625 240.045 -18.0375 239.715 -55.4375 239.375 C-55.7675 241.025 -56.0975 242.675 -56.4375 244.375 C-57.10369798 246.06813419 -57.82207248 247.74135678 -58.58203125 249.39453125 C-59.01193359 250.33490234 -59.44183594 251.27527344 -59.88476562 252.24414062 C-60.33529297 253.21544922 -60.78582031 254.18675781 -61.25 255.1875 C-61.68892578 256.14720703 -62.12785156 257.10691406 -62.58007812 258.09570312 C-70.39566602 275.10883278 -70.39566602 275.10883278 -75.4375 279.375 C-78.4807202 280.38940673 -80.5925853 280.51937037 -83.77929688 280.55200195 C-84.87052856 280.56483719 -85.96176025 280.57767242 -87.08605957 280.59089661 C-88.85330383 280.60197701 -88.85330383 280.60197701 -90.65625 280.61328125 C-91.86567261 280.621353 -93.07509521 280.62942474 -94.32116699 280.63774109 C-96.87994961 280.65157664 -99.43875065 280.66230116 -101.99755859 280.67016602 C-105.92190046 280.68743137 -109.84541137 280.73132981 -113.76953125 280.77539062 C-116.25259796 280.7855128 -118.73567184 280.79403038 -121.21875 280.80078125 C-122.39691284 280.81828934 -123.57507568 280.83579742 -124.78894043 280.85383606 C-125.88017212 280.85091049 -126.97140381 280.84798492 -128.09570312 280.8449707 C-129.53774109 280.85377007 -129.53774109 280.85377007 -131.00891113 280.86274719 C-133.4375 280.375 -133.4375 280.375 -135.27355957 278.54264832 C-137.09742073 275.14600579 -136.36576163 273.0767721 -135.4375 269.375 C-134.12733792 266.0999622 -132.57983123 262.96475793 -131 259.8125 C-130.0853463 257.94363375 -129.17264705 256.07380992 -128.26171875 254.203125 C-127.7929834 253.24341797 -127.32424805 252.28371094 -126.84130859 251.29492188 C-124.57906887 246.58946326 -122.44911124 241.82596947 -120.3125 237.0625 C-117.15227544 230.05079 -113.87954444 223.12264936 -110.39916992 216.26464844 C-107.49665 210.53646773 -104.74072686 204.74486217 -102.00585938 198.93505859 C-99.92266257 194.51048345 -97.82567648 190.0933572 -95.703125 185.6875 C-91.43298595 176.82034254 -87.19662663 167.954145 -83.25 158.9375 C-80.55131296 152.77662802 -77.67936406 146.74078724 -74.63891602 140.74194336 C-67.48156947 126.59721365 -60.80229837 112.21697785 -54.1875 97.8125 C-50.66816304 90.14923954 -47.08904588 82.54556111 -43.26953125 75.02734375 C-37.10347449 62.82522686 -31.30673283 50.42738177 -25.75 37.9375 C-22.43411919 30.48449493 -18.92947232 23.15677359 -15.22265625 15.890625 C-13.25953901 12.02452979 -11.3856195 8.12009208 -9.54296875 4.1953125 C-7.15139329 0.25724125 -4.23925324 0.0575204 0 0 Z " fill="#303030" transform="translate(157.4375,1052.625)"/>
<path d="M0 0 C0.75842733 -0.00367669 1.51685465 -0.00735338 2.29826462 -0.01114148 C4.85315688 -0.02220143 7.4080085 -0.02602603 9.96292114 -0.02983093 C11.78921641 -0.03609374 13.6155104 -0.04274038 15.44180298 -0.04974365 C20.41286452 -0.06716815 25.38391644 -0.07770895 30.35500097 -0.08594918 C33.45832964 -0.09109533 36.5616553 -0.09717117 39.66498184 -0.10346031 C49.3676653 -0.12251479 59.07034112 -0.13674646 68.7730397 -0.14507228 C79.98638916 -0.15485243 91.19954163 -0.18119116 102.41282165 -0.22157317 C111.07187791 -0.2516907 119.73087756 -0.26653693 128.3899852 -0.26985329 C133.56571121 -0.27220841 138.74122683 -0.2812288 143.91689682 -0.30631447 C148.78423948 -0.32952455 153.65123216 -0.33385702 158.51861572 -0.32355309 C160.30688768 -0.32305592 162.09517645 -0.32942935 163.88339615 -0.34310913 C166.32145098 -0.36071941 168.75823489 -0.35377659 171.19628906 -0.34057617 C172.26234023 -0.35703004 172.26234023 -0.35703004 173.34992778 -0.37381631 C176.73393816 -0.32945953 178.45139141 -0.06419668 181.16435528 2.03063679 C183.06063621 4.60214705 183.22622931 5.95504116 183.22683716 9.12763977 C183.23621811 10.11546448 183.24559906 11.10328918 183.25526428 12.12104797 C183.23841331 13.71179138 183.23841331 13.71179138 183.22122192 15.33467102 C183.22267715 16.42932678 183.22413239 17.52398254 183.22563171 18.65180969 C183.2239725 20.9650692 183.21240879 23.27833972 183.19168091 25.59150696 C183.16273599 29.13397575 183.17107043 32.67494745 183.18411255 36.21748352 C183.17787488 38.46488663 183.16948372 40.71228502 183.15872192 42.95967102 C183.16165756 44.02016663 183.1645932 45.08066223 183.1676178 46.17329407 C183.15493362 47.16111877 183.14224945 48.14894348 183.12918091 49.16670227 C183.12377792 50.03399963 183.11837494 50.901297 183.11280823 51.7948761 C182.62217436 54.77185555 181.84296563 55.99664871 179.72512817 58.14717102 C177.01060486 58.62818909 177.01060486 58.62818909 173.69314575 58.60127258 C171.83155571 58.6008194 171.83155571 58.6008194 169.93235779 58.60035706 C168.57811849 58.57993055 167.22388573 58.55906657 165.86965942 58.53779602 C164.4839001 58.53033439 163.09813022 58.52464109 161.71235657 58.52064514 C158.06737059 58.50538225 154.42302355 58.46609603 150.77828979 58.42182922 C147.05818322 58.38088991 143.33797327 58.36263707 139.6177063 58.34248352 C132.31988916 58.29960135 125.02259824 58.23134342 117.72512817 58.14717102 C117.72881535 59.24638256 117.73250252 60.3455941 117.73630142 61.47811508 C117.82502448 88.20082037 117.89079543 114.9235066 117.93237686 141.64632797 C117.95301882 154.56918822 117.98117071 167.49195127 118.02688599 180.41474915 C118.06670364 191.67575495 118.09254909 202.93669039 118.10148215 214.19776464 C118.10670547 220.16270611 118.11901624 226.12744624 118.1480484 232.0923233 C118.17513726 237.70323456 118.18358634 243.31386095 118.1775589 248.92483139 C118.17866206 250.98724031 118.18665457 253.04965846 118.20195007 255.11201096 C118.2217757 257.92232234 118.21709449 260.73155028 118.20614624 263.54188538 C118.21779761 264.36289695 118.22944897 265.18390851 118.24145341 266.02979922 C118.20333316 269.63596532 118.04284184 271.72165523 115.85394669 274.65325546 C113.16064836 276.54329929 111.56202338 276.65384409 108.28567505 276.66474915 C107.19774658 276.67735779 106.10981812 276.68996643 104.98892212 276.70295715 C103.81905762 276.69486023 102.64919312 276.68676331 101.44387817 276.67842102 C99.63542419 276.68416138 99.63542419 276.68416138 97.79043579 276.6900177 C95.24180262 276.69273928 92.69314164 276.68536107 90.14456177 276.6686554 C86.23979515 276.64725142 82.3368687 276.66845105 78.43215942 276.69404602 C75.95689494 276.69140279 73.4816316 276.68627792 71.00637817 276.67842102 C69.25158142 276.69056641 69.25158142 276.69056641 67.46133423 276.70295715 C66.37340576 276.69034851 65.28547729 276.67773987 64.1645813 276.66474915 C63.20845947 276.66156677 62.25233765 276.6583844 61.26724243 276.65510559 C57.81031628 275.96438436 56.83662622 274.97511285 54.72512817 272.14717102 C54.34094736 269.15429454 54.20166229 266.53296414 54.24411011 263.54188538 C54.24069241 262.66458747 54.23727471 261.78728957 54.23375344 260.88340688 C54.2271548 257.93812026 54.24918343 254.99374113 54.27102661 252.04853821 C54.27215466 249.93960085 54.27152206 247.83066191 54.26925659 245.72172546 C54.26810686 239.9906031 54.29165837 234.25981421 54.31955242 228.52876949 C54.34452276 222.54166279 54.34690463 216.55454881 54.35165405 210.56739807 C54.36409666 199.22726466 54.39693576 187.88728511 54.43705201 176.54721951 C54.48172967 163.63808329 54.5037467 150.7289398 54.52383375 137.81974554 C54.56566718 111.26213533 54.63604429 84.70466179 54.72512817 58.14717102 C53.57334076 58.16049469 53.57334076 58.16049469 52.39828491 58.17408752 C45.15922363 58.25426128 37.92037783 58.31514907 30.68098831 58.35441971 C26.9591807 58.37528806 23.23774015 58.40359083 19.5161438 58.44892883 C15.92403307 58.49241515 12.33227523 58.51631379 8.73992157 58.52667999 C7.36995641 58.53406652 6.0000104 58.54849103 4.63019562 58.57009125 C2.71053429 58.59915582 0.79051727 58.60080518 -1.12936401 58.60127258 C-2.22190491 58.61015503 -3.3144458 58.61903748 -4.44009399 58.62818909 C-7.96653758 58.02980601 -9.10567038 56.93765435 -11.27487183 54.14717102 C-12.20367088 51.36077385 -12.41070216 49.63691371 -12.43600464 46.75508118 C-12.44561218 45.87051239 -12.45521973 44.9859436 -12.46511841 44.0745697 C-12.46936829 43.12141876 -12.47361816 42.16826782 -12.47799683 41.18623352 C-12.4836969 40.20351471 -12.48939697 39.2207959 -12.49526978 38.20829773 C-12.50471701 36.12868831 -12.51125266 34.04906395 -12.5151062 31.96943665 C-12.52481298 28.79143621 -12.55583968 25.6140822 -12.58737183 22.43623352 C-12.59390194 20.41540403 -12.59915238 18.39456991 -12.60299683 16.37373352 C-12.61534363 15.42463104 -12.62769043 14.47552856 -12.64041138 13.49766541 C-12.62387492 8.58883333 -12.56327701 5.08905417 -9.27487183 1.14717102 C-6.29940026 -0.34056476 -3.2630189 -0.00084118 0 0 Z " fill="#303030" transform="translate(580.2748718261719,1056.8528289794922)"/>
<path d="M0 0 C1.60197487 -0.01429802 1.60197487 -0.01429802 3.23631287 -0.02888489 C4.96604088 -0.02751778 4.96604088 -0.02751778 6.73071289 -0.02612305 C7.91556778 -0.03040817 9.10042267 -0.0346933 10.32118225 -0.03910828 C12.82869833 -0.04485522 15.33623108 -0.04534917 17.84375 -0.04101562 C21.68461499 -0.03785722 25.52470889 -0.06130612 29.36547852 -0.08666992 C31.79972233 -0.08894298 34.23396823 -0.08964638 36.66821289 -0.08862305 C37.81934067 -0.09783279 38.97046844 -0.10704254 40.15647888 -0.11653137 C41.22761429 -0.11030258 42.29874969 -0.10407379 43.40234375 -0.09765625 C44.34371689 -0.09828568 45.28509003 -0.0989151 46.25498962 -0.0995636 C49.24794635 0.34650705 50.59959811 1.18746059 52.76586914 3.2746582 C54.04186793 7.10265457 53.90035714 10.6957147 53.88612366 14.6837616 C53.88697808 15.55203797 53.88783251 16.42031435 53.88871282 17.31490213 C53.8903649 20.23534611 53.88485067 23.15573314 53.87939453 26.07617188 C53.87911258 28.16525776 53.87927056 30.25434374 53.87983704 32.34342957 C53.88012468 38.02489754 53.87423324 43.70634452 53.86726308 49.38780761 C53.86102409 55.32155104 53.86042531 61.25529493 53.85923767 67.18904114 C53.85612597 78.42997391 53.84791474 89.67089698 53.83788818 100.91182548 C53.82672206 113.70729723 53.82121533 126.50276943 53.81619275 139.29824483 C53.805732 165.62372134 53.78813566 191.94918923 53.76586914 218.2746582 C54.98251755 218.26355515 56.19916595 218.25245209 57.4526825 218.24101257 C68.91491929 218.13968183 80.37706528 218.06471432 91.83964825 218.01559734 C97.73280686 217.98949684 103.62560408 217.95408959 109.51855469 217.89746094 C115.20495471 217.84315873 120.89100698 217.81324109 126.57764626 217.80027199 C128.74782601 217.791029 130.91798659 217.77297958 133.08801842 217.74600792 C136.12648105 217.70974226 139.16350442 217.70471193 142.20214844 217.70703125 C143.10054443 217.68905487 143.99894043 217.67107849 144.92456055 217.65255737 C149.39089077 217.68947858 151.19104934 217.82658888 154.8239193 220.65839386 C156.94192375 223.51184527 157.39634819 224.76033208 157.4128418 228.26098633 C157.4286026 229.22548706 157.4443634 230.18998779 157.46060181 231.18371582 C157.45048065 232.21403931 157.4403595 233.24436279 157.42993164 234.3059082 C157.43471527 235.3745813 157.4394989 236.44325439 157.44442749 237.54431152 C157.44782495 239.80030797 157.43863344 242.05635375 157.41772461 244.31225586 C157.39095894 247.76308085 157.41747985 251.210653 157.44946289 254.66137695 C157.44615877 256.85539454 157.43975249 259.04941011 157.42993164 261.2434082 C157.4400528 262.27373169 157.45017395 263.30405518 157.46060181 264.36560059 C157.4369606 265.81235168 157.4369606 265.81235168 157.4128418 267.28833008 C157.40886383 268.13262573 157.40488586 268.97692139 157.40078735 269.84680176 C156.46061658 273.44190995 154.59230786 274.92046105 151.76586914 277.2746582 C148.72828674 277.89827728 148.72828674 277.89827728 145.27587891 277.89611816 C143.96362335 277.90732697 142.6513678 277.91853577 141.29934692 277.93008423 C139.85198532 277.91717409 138.40462814 277.90376 136.95727539 277.88989258 C135.42771794 277.89339484 133.89816414 277.89905462 132.36862183 277.90670776 C128.21971198 277.92095052 124.0714653 277.90389965 119.92261887 277.88042259 C115.57943729 277.86030862 111.23628311 277.86619343 106.89306641 277.86853027 C99.59957956 277.86847671 92.30635183 277.84872338 85.01293945 277.81665039 C76.58260431 277.77975779 68.15260859 277.77097489 59.72220325 277.7779479 C51.61007418 277.78425476 43.49806141 277.77349523 35.38595581 277.75398254 C31.93470603 277.74581115 28.48351572 277.74309852 25.03225708 277.74467468 C20.9675576 277.74555411 16.9031803 277.73132195 12.83856583 277.70544815 C11.34744962 277.69829054 9.85629912 277.69620079 8.36516953 277.69956589 C6.32871083 277.7032848 4.2922453 277.68668023 2.25585938 277.66906738 C1.11656479 277.66533867 -0.0227298 277.66160995 -1.19654846 277.65776825 C-4.60125518 277.22835526 -6.49389804 276.30784454 -9.23413086 274.2746582 C-10.40462332 271.93367329 -10.36044164 270.56774825 -10.36276531 267.95915794 C-10.36598976 267.0474598 -10.3692142 266.13576165 -10.37253636 265.19643629 C-10.37098776 264.18829047 -10.36943916 263.18014466 -10.36784363 262.14144897 C-10.37010918 261.07549393 -10.37237474 260.00953889 -10.37470895 258.91128218 C-10.38107291 255.31543708 -10.38021804 251.71962943 -10.37939453 248.1237793 C-10.3823846 245.55521597 -10.38578678 242.9866531 -10.38957214 240.41809082 C-10.39789103 234.14981925 -10.40062758 227.88155709 -10.40118452 221.61328046 C-10.40165929 216.51709431 -10.4037121 211.42091127 -10.40688515 206.3247261 C-10.41569671 191.87863368 -10.42030398 177.4325487 -10.41955467 162.98645358 C-10.41951472 162.20709333 -10.41947476 161.42773308 -10.41943359 160.62475586 C-10.41939271 159.84444428 -10.41935183 159.06413269 -10.41930971 158.2601753 C-10.41890356 145.62363493 -10.42846401 132.9871244 -10.44257196 120.35059266 C-10.45694086 107.37794623 -10.4638418 94.40531434 -10.46297818 81.43265975 C-10.46264629 74.14866033 -10.4653897 66.86469217 -10.47615623 59.58069992 C-10.48622137 52.72714906 -10.48592053 45.87366519 -10.4786396 39.02011108 C-10.47759288 36.50465422 -10.47996184 33.98919327 -10.48600006 31.47374344 C-10.49371066 28.03900759 -10.48908105 24.60450017 -10.48136902 21.16976929 C-10.48651258 20.1750078 -10.49165614 19.18024632 -10.49695557 18.15534055 C-10.46907401 12.53303787 -10.05327106 7.62019183 -8.23413086 2.2746582 C-4.91586922 0.06248377 -3.86565524 0.0189358 0 0 Z " fill="#303030" transform="translate(375.234130859375,1056.725341796875)"/>
<path d="M0 0 C15.52174322 13.35644864 25.47047015 32.69148403 27.46875 53.04003906 C28.8589414 73.05010646 23.25399131 92.15616359 10.6875 107.875 C9.23032863 109.5403387 7.75261748 111.18804867 6.25 112.8125 C5.60675781 113.5240625 4.96351563 114.235625 4.30078125 114.96875 C1.21765641 118.23244831 -1.29656351 120.59792641 -5.75 121.8125 C-5.75 122.4725 -5.75 123.1325 -5.75 123.8125 C-23.21940922 136.6498689 -45.65323078 141.16137634 -66.875 138.0625 C-88.49515912 133.91028401 -107.35872562 121.78768107 -120.4375 104.0625 C-132.0830861 86.5402061 -136.56034665 66.29558802 -133.125 45.546875 C-129.86027597 29.37787908 -121.01546307 11.83529432 -107.75 1.8125 C-106.99203125 1.02617188 -106.2340625 0.23984375 -105.453125 -0.5703125 C-76.17608284 -28.91658165 -29.95713576 -23.05046938 0 0 Z " fill="#000000" transform="translate(1019.75,1135.1875)"/>
<path d="M0 0 C15.53102228 -0.16043524 15.53102228 -0.16043524 22.21289062 -0.1953125 C26.75092561 -0.21911292 31.28863411 -0.24709612 35.82641602 -0.30175781 C39.48988073 -0.34560532 43.15299477 -0.36921783 46.81670189 -0.37950897 C48.20600076 -0.38683135 49.59528307 -0.40112787 50.98443031 -0.42292023 C61.72567252 -0.58453747 71.70663593 0.6702065 80.4375 7.44921875 C86.60469494 13.57015973 90.2632056 20.88990514 90.5 29.5625 C90.37787417 39.25114907 86.29505165 46.79884243 80 54 C77.921875 55.73046875 77.921875 55.73046875 75.75 57.1875 C74.69039062 57.92033203 74.69039062 57.92033203 73.609375 58.66796875 C65.60228538 62.75542019 57.20624428 62.26440593 48.4375 62.1953125 C47.0364604 62.19157591 45.63541816 62.18873199 44.234375 62.18673706 C40.57160044 62.1791514 36.90898798 62.15954737 33.24627686 62.1373291 C29.49884269 62.11676062 25.75138119 62.10760187 22.00390625 62.09765625 C14.66912831 62.07736079 7.3347938 62.03820205 0 62 C0 41.54 0 21.08 0 0 Z " fill="#000000" transform="translate(1264,1113)"/>
<path d="M0 0 C2.74097681 2.41617608 4.10876903 4.91447623 5.671875 8.19921875 C6.1678418 9.23570557 6.66380859 10.27219238 7.17480469 11.34008789 C7.69461914 12.44473389 8.21443359 13.54937988 8.75 14.6875 C9.28786133 15.81857178 9.82572266 16.94964355 10.37988281 18.11499023 C13.55935797 24.83472186 16.63123629 31.58854917 19.54443359 38.42749023 C21.93721179 43.99612425 24.63642157 49.39535226 27.42480469 54.77563477 C29.02506606 57.89229226 30.14337358 60.57349432 31 64 C11.2 64 -8.6 64 -29 64 C-25.62612067 53.87836201 -25.62612067 53.87836201 -23.80078125 50.125 C-23.40036621 49.29387695 -22.99995117 48.46275391 -22.58740234 47.60644531 C-22.16668457 46.74631836 -21.7459668 45.88619141 -21.3125 45 C-20.41500984 43.14079621 -19.51787901 41.28141891 -18.62109375 39.421875 C-17.9556958 38.04805664 -17.9556958 38.04805664 -17.27685547 36.64648438 C-15.44994243 32.85991891 -13.65967202 29.05661258 -11.875 25.25 C-11.23701761 23.89190902 -10.59899684 22.53383607 -9.9609375 21.17578125 C-9.64479492 20.50240723 -9.32865234 19.8290332 -9.00292969 19.13525391 C-7.17093756 15.23491235 -5.33518109 11.33634182 -3.5 7.4375 C-2.82290169 5.99870497 -2.14581689 4.55990357 -1.46875 3.12109375 C-0.9840625 2.09113281 -0.499375 1.06117187 0 0 Z " fill="#000000" transform="translate(156,1174)"/>
</svg>
